<svg  width="50" height="50" viewBox="0 0 32 40" style="enable-background:new 0 0 32 32;"><g><path d="M25.9,14.5C25.9,14.5,25.9,14.5,25.9,14.5c0.1,0,0.1,0,0.1,0c0.1,0,0.1,0,0.2,0c0,0,0,0,0,0c0,0,0,0,0,0   c0.1,0,0.1-0.1,0.2-0.1l3-3c0.2-0.2,0.2-0.5,0-0.7s-0.5-0.2-0.7,0l-2.1,2.1V10c0-0.1-0.1-0.3-0.1-0.4l-4-4   c-0.1-0.1-0.2-0.1-0.4-0.1H6C5.7,5.5,5.5,5.7,5.5,6v20c0,0.3,0.2,0.5,0.5,0.5h20c0.3,0,0.5-0.2,0.5-0.5V16c0-0.3-0.2-0.5-0.5-0.5   s-0.5,0.2-0.5,0.5v9.5h-19v-19h2V11c0,0.3,0.2,0.5,0.5,0.5h11c0.3,0,0.5-0.2,0.5-0.5V6.5h1.3l3.7,3.7v2.6l-2.1-2.1   c-0.2-0.2-0.5-0.2-0.7,0s-0.2,0.5,0,0.7l3,3C25.7,14.4,25.8,14.5,25.9,14.5z M19.5,10.5H17H9.5v-4H17h2.5V10.5z"/><path d="M17.5,10V7c0-0.3-0.2-0.5-0.5-0.5S16.5,6.7,16.5,7v3c0,0.3,0.2,0.5,0.5,0.5S17.5,10.3,17.5,10z"/><path d="M21.5,17.5h-11C9.7,17.5,9,18.2,9,19v4c0,0.8,0.7,1.5,1.5,1.5h11c0.8,0,1.5-0.7,1.5-1.5v-4   C23,18.2,22.3,17.5,21.5,17.5z M22,23c0,0.3-0.2,0.5-0.5,0.5h-11c-0.3,0-0.5-0.2-0.5-0.5v-4c0-0.3,0.2-0.5,0.5-0.5h11   c0.3,0,0.5,0.2,0.5,0.5V23z"/><path d="M20.5,19.5h-9c-0.3,0-0.5,0.2-0.5,0.5s0.2,0.5,0.5,0.5h9c0.3,0,0.5-0.2,0.5-0.5S20.8,19.5,20.5,19.5z"/><path d="M20.5,21.5h-9c-0.3,0-0.5,0.2-0.5,0.5s0.2,0.5,0.5,0.5h9c0.3,0,0.5-0.2,0.5-0.5S20.8,21.5,20.5,21.5z"/></g></svg>
