<svg style="shape-rendering:geometricPrecision;text-rendering:geometricPrecision;image-rendering:optimizeQuality;" viewBox="0 0 507 488.75" width="50" height="50" fill-rule="evenodd" clip-rule="evenodd"><defs><style type="text/css">

    .fil0 {fill:black;fill-rule:nonzero}

  </style></defs><g><path class="fil0" d="M194 357l0 -134c0,-9 8,-16 17,-16l85 0c9,0 17,7 17,16l0 134 93 0 0 -229 -153 -91 -152 91 0 229 93 0zm305 -213c8,5 10,15 5,23 -4,8 -15,11 -23,6l-41 -24 0 225c0,10 -8,17 -17,17l-339 0c-10,0 -17,-7 -17,-17l0 -225 -41 24c-8,5 -19,2 -24,-6 -4,-8 -2,-18 6,-23 79,-47 158,-94 237,-142 5,-3 12,-3 17,0 79,48 158,95 237,142zm-220 213l0 -117 -51 0 0 117 51 0z"/></g></svg>
