<svg width="50" height="50" viewBox="0 0 10 10"><path style="color:#000000;font-style:normal;font-variant:normal;font-weight:normal;font-stretch:normal;font-size:medium;line-height:normal;font-family:sans-serif;font-variant-ligatures:normal;font-variant-position:normal;font-variant-caps:normal;font-variant-numeric:normal;font-variant-alternates:normal;font-feature-settings:normal;text-indent:0;text-align:start;text-decoration:none;text-decoration-line:none;text-decoration-style:solid;text-decoration-color:#000000;letter-spacing:normal;word-spacing:normal;text-transform:none;writing-mode:lr-tb;direction:ltr;text-orientation:mixed;dominant-baseline:auto;baseline-shift:baseline;text-anchor:start;white-space:normal;shape-padding:0;clip-rule:nonzero;display:inline;overflow:visible;visibility:visible;opacity:1;isolation:auto;mix-blend-mode:normal;color-interpolation:sRGB;color-interpolation-filters:linearRGB;solid-color:#000000;solid-opacity:1;vector-effect:none;fill:#000000;fill-opacity:1;fill-rule:nonzero;stroke:none;stroke-width:0.52916664;stroke-linecap:round;stroke-linejoin:round;stroke-miterlimit:4;stroke-dasharray:none;stroke-dashoffset:19.6000042;stroke-opacity:1;paint-order:normal;color-rendering:auto;image-rendering:auto;shape-rendering:auto;text-rendering:auto;enable-background:accumulate" d="M 1.2049236,1.1615015 A 0.26460979,0.26460979 0 0 0 1.204405,1.1620183 0.26460979,0.26460979 0 0 0 0.99924974,1.2984441 L 0.63389721,1.9686874 H 0.26492782 A 0.26460979,0.26460979 0 0 0 -6.8738965e-4,2.2343043 V 7.0386622 A 0.26460979,0.26460979 0 0 0 0.30420256,7.3022121 H 6.8779606 A 0.26460979,0.26460979 0 0 0 7.1280765,7.1244451 L 8.4525436,3.3319116 A 0.26460979,0.26460979 0 0 0 8.2024277,2.9799952 H 7.1435785 V 2.2343043 A 0.26460979,0.26460979 0 0 0 6.8779606,1.9686874 H 3.647668 L 3.2823155,1.2984441 A 0.26460979,0.26460979 0 0 0 3.0497706,1.1620183 H 1.2317947 A 0.26460979,0.26460979 0 0 0 1.2049236,1.1615015 Z M 1.3878565,1.691185 h 1.5037858 l 0.367419,0.6697266 A 0.26460979,0.26460979 0 0 0 3.4895371,2.4978541 H 6.6144118 V 2.9799952 H 1.5868126 a 0.26460979,0.26460979 0 0 0 -0.025323,0 0.26460979,0.26460979 0 0 0 -0.1808665,0.098702 0.26460979,0.26460979 0 0 0 -0.00103,0.00155 0.26460979,0.26460979 0 0 0 -0.027903,0.042892 0.26460979,0.26460979 0 0 0 -5.186e-4,0.00155 0.26460979,0.26460979 0 0 0 -0.010851,0.024288 0.26460979,0.26460979 0 0 0 -0.0031,0.00879 L 0.52847927,5.4775171 V 2.4978541 H 0.78996168 A 0.26460979,0.26460979 0 0 0 1.022504,2.3609116 Z M 1.7743969,3.5096786 H 6.8779606 7.8293255 L 6.6903763,6.7730454 H 0.63803264 Z"/></svg>
