<svg width="50" height="50" viewBox="0 0 100 125"><g transform="translate(0,-952.36218)"><path style="font-size:medium;font-style:normal;font-variant:normal;font-weight:normal;font-stretch:normal;text-indent:0;text-align:start;text-decoration:none;line-height:normal;letter-spacing:normal;word-spacing:normal;text-transform:none;direction:ltr;block-progression:tb;writing-mode:lr-tb;text-anchor:start;baseline-shift:baseline;opacity:1;color:#000000;fill:#000000;fill-opacity:1;stroke:none;stroke-width:2.38095236000000020;marker:none;visibility:visible;display:inline;overflow:visible;enable-background:accumulate;font-family:Sans;-inkscape-font-specification:Sans" d="M 50 6 C 25.72316 6 6 25.72314 6 50 C 6 74.2768 25.72316 94 50 94 C 74.27684 94 94 74.2768 94 50 C 94 25.72314 74.27684 6 50 6 z M 50 10 C 72.11508 10 90 27.8849 90 50 C 90 72.1151 72.11508 90 50 90 C 27.88492 90 10 72.1151 10 50 C 10 27.8849 27.88492 10 50 10 z M 32.78125 30.96875 A 2.0002 2.0002 0 0 0 31.59375 34.40625 L 47.1875 50 L 31.59375 65.5625 A 2.0002 2.0002 0 1 0 34.40625 68.40625 L 50 52.8125 L 65.59375 68.40625 A 2.0002 2.0002 0 1 0 68.40625 65.5625 L 52.8125 50 L 68.40625 34.40625 A 2.0002 2.0002 0 0 0 66.75 30.96875 A 2.0002 2.0002 0 0 0 65.59375 31.5625 L 50 47.15625 L 34.40625 31.5625 A 2.0002 2.0002 0 0 0 32.78125 30.96875 z " transform="translate(0,952.36218)"/></g></svg>
