<svg x="0px" y="0px" width="50" height="50" viewBox="0 0 100 125" enable-background="new 0 0 100 100" ><path d="M70.541,12.857c-11.514,0-19.391,11.194-19.391,11.194c-0.315,0.448-0.729,0.673-1.144,0.673  c-0.416,0-0.832-0.228-1.146-0.681c0,0-7.76-11.187-19.4-11.187C16.23,12.857,5.5,23.545,5.5,36.719  c0,17.047,42.912,49.922,42.912,49.922c0.437,0.335,1.012,0.502,1.588,0.502s1.151-0.167,1.588-0.502  c0,0,42.912-32.875,42.912-49.922C94.5,23.545,83.77,12.857,70.541,12.857z M70.998,65.877C61.384,75.157,51.635,82.807,50,84.076  c-1.627-1.263-11.346-8.887-20.961-18.163C11.168,48.673,8.5,40.222,8.5,36.719c0-11.503,9.402-20.861,20.96-20.861  c9.887,0,16.87,9.803,16.936,9.896c0.869,1.252,2.186,1.97,3.611,1.97c1.416,0,2.728-0.709,3.597-1.945  c0.07-0.099,7.095-9.921,16.938-9.921c11.557,0,20.959,9.358,20.959,20.861C91.5,40.219,88.836,48.66,70.998,65.877z"/></svg>
