<svg xmlns="http://www.w3.org/2000/svg" xmlns:xlink="http://www.w3.org/1999/xlink" version="1.1" x="0px" y="0px" viewBox="0 0 100 125" enable-background="new 0 0 100 100" xml:space="preserve"><path d="M89.619,86.247H13.287c-1.104,0-2-0.896-2-2v-9.354c0-1.104,0.896-2,2-2h64.978V34.815H33.247v5.415  c0,0.717-0.384,1.379-1.006,1.735s-1.388,0.353-2.006-0.01L9.37,29.717c-0.612-0.359-0.988-1.016-0.988-1.725  s0.376-1.366,0.988-1.725l20.866-12.238c0.618-0.363,1.384-0.368,2.006-0.01c0.622,0.356,1.006,1.019,1.006,1.735v5.708h56.372  c1.104,0,2,0.896,2,2v60.786C91.619,85.351,90.723,86.247,89.619,86.247z"/><text x="0" y="115" fill="#000000" font-size="5px" font-weight="bold" font-family="'Helvetica Neue', Helvetica, Arial-Unicode, Arial, Sans-serif">Created by H Alberto Gongora</text><text x="0" y="120" fill="#000000" font-size="5px" font-weight="bold" font-family="'Helvetica Neue', Helvetica, Arial-Unicode, Arial, Sans-serif">from the Noun Project</text></svg>